M48
;GenerationSoftware,Autodesk,EAGLE,9.2.2*%
;CreationDate,2018-11-28T09:30:52Z*%
FMAT,2
ICI,OFF
METRIC,TZ,000.000
T8C0.813
T7C0.900
T6C1.016
T5C1.118
T4C2.800
T3C3.000
T2C3.200
T1C3.302
%
G90
M71
T1
X64776Y18200
T2
X13650Y32970
T3
X10620Y18750
X13620Y23450
X7720Y23450
T4
X7400Y32970
X10800Y28170
T5
X27020Y14800
X26920Y10400
X37080Y10400
X37180Y14800
T6
X49790Y15660
X49790Y18200
X49790Y20740
T7
X392900Y26360
X394900Y28360
X392900Y28360
X394900Y30360
X392900Y30360
X85950Y16360
X83950Y16360
X85950Y18360
X83950Y18360
X85950Y20360
X83950Y20360
X85950Y22360
X83950Y22360
X85950Y24360
X83950Y24360
X85950Y26360
X83950Y26360
X85950Y28360
X83950Y28360
X85950Y30360
X83950Y30360
X129594Y16360
X127594Y16360
X129594Y18360
X127594Y18360
X129594Y20360
X127594Y20360
X129594Y22360
X127594Y22360
X129594Y24360
X127594Y24360
X129594Y26360
X127594Y26360
X129594Y28360
X127594Y28360
X129594Y30360
X127594Y30360
X173238Y16360
X171238Y16360
X173238Y18360
X171238Y18360
X173238Y20360
X171238Y20360
X173238Y22360
X171238Y22360
X173238Y24360
X171238Y24360
X173238Y26360
X171238Y26360
X173238Y28360
X171238Y28360
X173238Y30360
X171238Y30360
X216882Y16360
X214882Y16360
X216882Y18360
X214882Y18360
X216882Y20360
X214882Y20360
X216882Y22360
X214882Y22360
X216882Y24360
X214882Y24360
X216882Y26360
X214882Y26360
X216882Y28360
X214882Y28360
X216882Y30360
X214882Y30360
X260526Y16360
X258526Y16360
X260526Y18360
X258526Y18360
X260526Y20360
X258526Y20360
X260526Y22360
X258526Y22360
X260526Y24360
X258526Y24360
X260526Y26360
X258526Y26360
X260526Y28360
X258526Y28360
X260526Y30360
X258526Y30360
X304170Y16360
X302170Y16360
X304170Y18360
X302170Y18360
X304170Y20360
X302170Y20360
X304170Y22360
X302170Y22360
X304170Y24360
X302170Y24360
X304170Y26360
X302170Y26360
X304170Y28360
X302170Y28360
X304170Y30360
X302170Y30360
X347814Y16360
X345814Y16360
X347814Y18360
X347814Y20360
X345814Y20360
X347814Y22360
X345814Y22360
X347814Y24360
X345814Y24360
X347814Y26360
X345814Y26360
X347814Y28360
X345814Y28360
X347814Y30360
X345814Y30360
X345814Y18360
X394900Y16360
X392900Y16360
X394900Y18360
X392900Y18360
X394900Y20360
X392900Y20360
X394900Y22360
X392900Y22360
X394900Y24360
X392900Y24360
X394900Y26360
T8
X16390Y42685
X16390Y45225
X23230Y44590
X23230Y42050
X30070Y42685
X32190Y38470
X61130Y28100
X61130Y25560
X61130Y30640
X32190Y30850
X38290Y37130
X38290Y29510
X41220Y36810
X48840Y36810
X30070Y45225
M30